<svg id="svg" version="1.1" xmlns="http://www.w3.org/2000/svg" xmlns:xlink="http://www.w3.org/1999/xlink" width="400" height="400" viewBox="0, 0, 400,400"><g id="svgg"><path id="path0" d="M398.800 161.667 C 398.800 161.850,398.440 162.000,398.000 162.000 C 397.560 162.000,397.200 162.180,397.200 162.400 C 397.200 162.620,396.660 162.800,396.000 162.800 C 395.340 162.800,394.800 162.980,394.800 163.200 C 394.800 163.420,394.361 163.600,393.824 163.600 C 393.287 163.600,392.736 163.780,392.600 164.000 C 392.464 164.220,391.913 164.400,391.376 164.400 C 390.839 164.400,390.400 164.580,390.400 164.800 C 390.400 165.020,389.860 165.200,389.200 165.200 C 388.540 165.200,388.000 165.380,388.000 165.600 C 388.000 165.820,387.460 166.000,386.800 166.000 C 386.140 166.000,385.600 166.180,385.600 166.400 C 385.600 166.620,385.060 166.800,384.400 166.800 C 383.740 166.800,383.200 166.980,383.200 167.200 C 383.200 167.420,382.660 167.600,382.000 167.600 C 381.340 167.600,380.800 167.780,380.800 168.000 C 380.800 168.220,380.260 168.400,379.600 168.400 C 378.940 168.400,378.400 168.580,378.400 168.800 C 378.400 169.020,377.961 169.200,377.424 169.200 C 376.887 169.200,376.336 169.380,376.200 169.600 C 376.064 169.820,375.513 170.000,374.976 170.000 C 374.439 170.000,374.000 170.180,374.000 170.400 C 374.000 170.620,373.460 170.800,372.800 170.800 C 372.140 170.800,371.600 170.980,371.600 171.200 C 371.600 171.420,371.060 171.600,370.400 171.600 C 369.740 171.600,369.200 171.780,369.200 172.000 C 369.200 172.220,368.660 172.400,368.000 172.400 C 367.340 172.400,366.800 172.580,366.800 172.800 C 366.800 173.020,366.260 173.200,365.600 173.200 C 364.940 173.200,364.400 173.380,364.400 173.600 C 364.400 173.820,363.860 174.000,363.200 174.000 C 362.540 174.000,362.000 174.180,362.000 174.400 C 362.000 174.620,361.561 174.800,361.024 174.800 C 360.487 174.800,359.949 174.959,359.829 175.154 C 359.623 175.486,356.156 176.218,355.500 176.068 C 355.335 176.031,355.200 176.180,355.200 176.400 C 355.200 176.620,354.660 176.800,354.000 176.800 C 353.340 176.800,352.800 176.980,352.800 177.200 C 352.800 177.420,352.361 177.600,351.824 177.600 C 351.287 177.600,350.736 177.780,350.600 178.000 C 350.464 178.220,349.823 178.400,349.176 178.400 C 348.529 178.400,348.000 178.580,348.000 178.800 C 348.000 179.020,347.460 179.200,346.800 179.200 C 346.140 179.200,345.600 179.380,345.600 179.600 C 345.600 179.820,345.161 180.000,344.624 180.000 C 344.087 180.000,343.536 180.180,343.400 180.400 C 343.264 180.620,342.713 180.800,342.176 180.800 C 341.639 180.800,341.200 180.980,341.200 181.200 C 341.200 181.420,340.660 181.600,340.000 181.600 C 339.340 181.600,338.800 181.780,338.800 182.000 C 338.800 182.220,338.260 182.400,337.600 182.400 C 336.940 182.400,336.400 182.580,336.400 182.800 C 336.400 183.020,335.860 183.200,335.200 183.200 C 334.540 183.200,334.000 183.380,334.000 183.600 C 334.000 183.820,333.460 184.000,332.800 184.000 C 332.140 184.000,331.600 184.180,331.600 184.400 C 331.600 184.620,331.060 184.800,330.400 184.800 C 329.740 184.800,329.200 184.980,329.200 185.200 C 329.200 185.420,328.660 185.600,328.000 185.600 C 327.340 185.600,326.800 185.780,326.800 186.000 C 326.800 186.220,326.350 186.400,325.800 186.400 C 325.250 186.400,324.800 186.580,324.800 186.800 C 324.800 187.020,324.260 187.200,323.600 187.200 C 322.940 187.200,322.400 187.380,322.400 187.600 C 322.400 187.820,321.860 188.000,321.200 188.000 C 320.540 188.000,320.000 188.180,320.000 188.400 C 320.000 188.620,319.640 188.800,319.200 188.800 C 318.578 188.800,318.400 189.067,318.400 190.000 C 318.400 190.660,318.220 191.200,318.000 191.200 C 317.780 191.200,317.600 191.740,317.600 192.400 C 317.600 193.060,317.420 193.600,317.200 193.600 C 316.980 193.600,316.800 194.050,316.800 194.600 C 316.800 195.150,316.620 195.600,316.400 195.600 C 316.180 195.600,316.000 196.140,316.000 196.800 C 316.000 197.460,315.820 198.000,315.600 198.000 C 315.380 198.000,315.200 198.540,315.200 199.200 C 315.200 199.860,315.020 200.400,314.800 200.400 C 314.580 200.400,314.400 200.940,314.400 201.600 C 314.400 202.260,314.220 202.800,314.000 202.800 C 313.780 202.800,313.600 203.509,313.600 204.376 C 313.600 205.243,313.420 206.064,313.200 206.200 C 312.980 206.336,312.800 206.887,312.800 207.424 C 312.800 207.961,312.620 208.400,312.400 208.400 C 312.180 208.400,312.000 208.839,312.000 209.376 C 312.000 209.913,311.820 210.464,311.600 210.600 C 311.380 210.736,311.200 211.199,311.200 211.629 C 311.200 212.059,311.038 212.723,310.839 213.105 C 310.640 213.487,310.248 214.610,309.967 215.600 C 309.686 216.590,309.320 217.584,309.154 217.810 C 308.987 218.035,308.727 219.160,308.574 220.310 C 308.422 221.459,308.140 222.400,307.948 222.400 C 307.757 222.400,307.600 222.940,307.600 223.600 C 307.600 224.260,307.420 224.800,307.200 224.800 C 306.980 224.800,306.800 225.250,306.800 225.800 C 306.800 226.350,306.620 226.800,306.400 226.800 C 306.180 226.800,306.000 227.340,306.000 228.000 C 306.000 228.660,305.820 229.200,305.600 229.200 C 305.380 229.200,305.200 229.740,305.200 230.400 C 305.200 231.060,305.020 231.600,304.800 231.600 C 304.580 231.600,304.400 232.320,304.400 233.200 C 304.400 234.080,304.220 234.800,304.000 234.800 C 303.780 234.800,303.600 235.340,303.600 236.000 C 303.600 236.660,303.420 237.200,303.200 237.200 C 302.980 237.200,302.800 237.740,302.800 238.400 C 302.800 239.060,302.620 239.600,302.400 239.600 C 302.180 239.600,302.000 240.140,302.000 240.800 C 302.000 241.460,301.820 242.000,301.600 242.000 C 301.380 242.000,301.200 242.450,301.200 243.000 C 301.200 243.550,301.020 244.000,300.800 244.000 C 300.580 244.000,300.400 244.540,300.400 245.200 C 300.400 245.860,300.220 246.400,300.000 246.400 C 299.780 246.400,299.600 246.940,299.600 247.600 C 299.600 248.260,299.420 248.800,299.200 248.800 C 298.980 248.800,298.800 249.340,298.800 250.000 C 298.800 250.660,298.620 251.200,298.400 251.200 C 298.180 251.200,298.000 251.740,298.000 252.400 C 298.000 253.060,297.820 253.600,297.600 253.600 C 297.380 253.600,297.200 254.140,297.200 254.800 C 297.200 255.460,297.020 256.000,296.800 256.000 C 296.580 256.000,296.400 256.452,296.400 257.005 C 296.400 257.558,296.192 258.413,295.938 258.905 C 294.944 260.826,294.800 261.216,294.800 261.971 C 294.800 262.401,294.620 262.864,294.400 263.000 C 294.180 263.136,294.000 263.856,294.000 264.600 C 294.000 265.344,293.833 266.056,293.628 266.183 C 293.423 266.309,293.133 267.400,292.982 268.606 C 292.831 269.813,292.549 270.800,292.354 270.800 C 292.159 270.800,292.000 271.340,292.000 272.000 C 292.000 272.660,291.820 273.200,291.600 273.200 C 291.380 273.200,291.200 273.740,291.200 274.400 C 291.200 275.060,291.020 275.600,290.800 275.600 C 290.580 275.600,290.400 276.050,290.400 276.600 C 290.400 277.150,290.220 277.600,290.000 277.600 C 289.780 277.600,289.600 278.140,289.600 278.800 C 289.600 279.460,289.420 280.000,289.200 280.000 C 288.980 280.000,288.800 280.540,288.800 281.200 C 288.800 281.860,288.620 282.400,288.400 282.400 C 288.180 282.400,288.000 282.940,288.000 283.600 C 288.000 284.260,287.820 284.800,287.600 284.800 C 287.380 284.800,287.200 285.340,287.200 286.000 C 287.200 286.660,287.020 287.200,286.800 287.200 C 286.580 287.200,286.400 287.740,286.400 288.400 C 286.400 289.060,286.220 289.600,286.000 289.600 C 285.780 289.600,285.600 290.140,285.600 290.800 C 285.600 291.460,285.420 292.000,285.200 292.000 C 284.980 292.000,284.800 292.450,284.800 293.000 C 284.800 293.550,284.620 294.000,284.400 294.000 C 284.180 294.000,284.000 294.720,284.000 295.600 C 284.000 296.480,283.820 297.200,283.600 297.200 C 283.380 297.200,283.200 297.740,283.200 298.400 C 283.200 299.060,283.020 299.600,282.800 299.600 C 282.580 299.600,282.400 300.129,282.400 300.776 C 282.400 301.423,282.220 302.064,282.000 302.200 C 281.780 302.336,281.600 302.887,281.600 303.424 C 281.600 303.961,281.420 304.400,281.200 304.400 C 280.980 304.400,280.800 304.940,280.800 305.600 C 280.800 306.260,280.620 306.800,280.400 306.800 C 279.713 306.800,279.962 307.796,280.800 308.400 C 281.240 308.717,281.600 309.257,281.600 309.600 C 281.600 309.943,281.960 310.483,282.400 310.800 C 282.840 311.117,283.200 311.625,283.200 311.928 C 283.200 312.231,283.740 312.983,284.400 313.600 C 285.060 314.217,285.600 314.969,285.600 315.272 C 285.600 315.575,285.960 316.083,286.400 316.400 C 286.840 316.717,287.200 317.225,287.200 317.528 C 287.200 317.831,287.740 318.583,288.400 319.200 C 289.060 319.817,289.600 320.569,289.600 320.872 C 289.600 321.175,289.960 321.683,290.400 322.000 C 290.840 322.317,291.200 322.927,291.200 323.355 C 291.200 323.783,291.314 324.019,291.453 323.880 C 291.721 323.613,293.199 325.289,293.202 325.863 C 293.203 326.048,293.743 326.775,294.402 327.478 C 295.061 328.181,295.600 328.997,295.600 329.290 C 295.600 329.583,295.960 330.083,296.400 330.400 C 296.840 330.717,297.200 331.225,297.200 331.528 C 297.200 331.831,297.740 332.583,298.400 333.200 C 299.060 333.817,299.600 334.569,299.600 334.872 C 299.600 335.175,299.960 335.683,300.400 336.000 C 300.840 336.317,301.200 336.792,301.200 337.054 C 301.200 337.317,301.740 338.042,302.400 338.665 C 303.060 339.288,303.600 340.021,303.600 340.295 C 303.600 340.569,303.960 341.018,304.400 341.293 C 304.840 341.568,305.200 342.037,305.200 342.336 C 305.200 342.635,305.740 343.383,306.400 344.000 C 307.060 344.617,307.600 345.409,307.600 345.760 C 307.600 346.112,307.762 346.400,307.961 346.400 C 308.159 346.400,308.503 346.895,308.725 347.500 C 308.946 348.105,309.594 349.087,310.164 349.683 C 310.734 350.278,311.200 350.971,311.200 351.222 C 311.200 351.473,311.740 352.183,312.400 352.800 C 313.060 353.417,313.600 354.219,313.600 354.584 C 313.600 354.949,313.760 355.148,313.956 355.027 C 314.152 354.906,314.596 355.406,314.944 356.138 C 315.291 356.871,316.031 357.812,316.588 358.230 C 317.145 358.648,317.600 359.267,317.600 359.607 C 317.600 359.946,317.960 360.483,318.400 360.800 C 318.840 361.117,319.200 361.625,319.200 361.928 C 319.200 362.231,319.740 362.983,320.400 363.600 C 321.060 364.217,321.600 364.969,321.600 365.272 C 321.600 365.575,321.960 366.083,322.400 366.400 C 322.840 366.717,323.200 367.225,323.200 367.528 C 323.200 367.831,323.740 368.583,324.400 369.200 C 325.060 369.817,325.600 370.511,325.600 370.743 C 325.600 371.318,327.408 373.939,328.395 374.796 C 328.838 375.180,329.200 375.704,329.200 375.960 C 329.200 376.645,331.871 379.200,332.587 379.200 C 332.933 379.200,333.200 378.852,333.200 378.400 C 333.200 377.960,333.380 377.600,333.600 377.600 C 333.820 377.600,334.000 377.060,334.000 376.400 C 334.000 375.740,334.180 375.200,334.400 375.200 C 334.620 375.200,334.800 374.570,334.800 373.800 C 334.800 373.030,334.980 372.400,335.200 372.400 C 335.420 372.400,335.600 371.860,335.600 371.200 C 335.600 370.540,335.780 370.000,336.000 370.000 C 336.220 370.000,336.400 369.471,336.400 368.824 C 336.400 368.177,336.580 367.536,336.800 367.400 C 337.020 367.264,337.200 366.713,337.200 366.176 C 337.200 365.639,337.380 365.200,337.600 365.200 C 337.820 365.200,338.000 364.660,338.000 364.000 C 338.000 363.340,338.180 362.800,338.400 362.800 C 338.620 362.800,338.800 362.168,338.800 361.395 C 338.800 360.622,338.976 359.677,339.191 359.295 C 339.876 358.078,341.600 352.421,341.600 351.392 C 341.600 350.846,341.780 350.400,342.000 350.400 C 342.220 350.400,342.400 349.680,342.400 348.800 C 342.400 347.920,342.580 347.200,342.800 347.200 C 343.020 347.200,343.200 346.660,343.200 346.000 C 343.200 345.340,343.380 344.800,343.600 344.800 C 343.820 344.800,344.000 344.260,344.000 343.600 C 344.000 342.940,344.180 342.400,344.400 342.400 C 344.620 342.400,344.800 341.950,344.800 341.400 C 344.800 340.850,344.980 340.400,345.200 340.400 C 345.420 340.400,345.600 339.860,345.600 339.200 C 345.600 338.540,345.780 338.000,346.000 338.000 C 346.220 338.000,346.400 337.280,346.400 336.400 C 346.400 335.520,346.580 334.800,346.800 334.800 C 347.020 334.800,347.200 334.260,347.200 333.600 C 347.200 332.940,347.380 332.400,347.600 332.400 C 347.820 332.400,348.000 331.860,348.000 331.200 C 348.000 330.540,348.180 330.000,348.400 330.000 C 348.620 330.000,348.800 329.460,348.800 328.800 C 348.800 328.140,348.980 327.600,349.200 327.600 C 349.420 327.600,349.600 327.060,349.600 326.400 C 349.600 325.740,349.780 325.200,350.000 325.200 C 350.220 325.200,350.400 324.761,350.400 324.224 C 350.400 323.687,350.580 323.136,350.800 323.000 C 351.020 322.864,351.200 322.144,351.200 321.400 C 351.200 320.656,351.380 319.936,351.600 319.800 C 351.820 319.664,352.000 319.124,352.000 318.600 C 352.000 318.076,352.180 317.536,352.400 317.400 C 352.620 317.264,352.800 316.713,352.800 316.176 C 352.800 315.639,352.980 315.200,353.200 315.200 C 353.420 315.200,353.600 314.660,353.600 314.000 C 353.600 313.340,353.780 312.800,354.000 312.800 C 354.220 312.800,354.400 312.260,354.400 311.600 C 354.400 310.940,354.580 310.400,354.800 310.400 C 355.020 310.400,355.200 309.858,355.200 309.195 C 355.200 308.532,355.362 307.677,355.561 307.295 C 355.760 306.913,356.151 305.790,356.432 304.800 C 356.712 303.810,357.039 302.820,357.158 302.600 C 357.278 302.380,357.323 301.795,357.259 301.300 C 357.195 300.805,357.336 300.400,357.571 300.400 C 357.807 300.400,358.000 299.860,358.000 299.200 C 358.000 298.540,358.180 298.000,358.400 298.000 C 358.620 298.000,358.800 297.280,358.800 296.400 C 358.800 295.520,358.980 294.800,359.200 294.800 C 359.420 294.800,359.600 294.260,359.600 293.600 C 359.600 292.940,359.780 292.400,360.000 292.400 C 360.220 292.400,360.400 291.961,360.400 291.424 C 360.400 290.887,360.580 290.336,360.800 290.200 C 361.020 290.064,361.200 289.513,361.200 288.976 C 361.200 288.439,361.380 288.000,361.600 288.000 C 361.820 288.000,362.000 287.460,362.000 286.800 C 362.000 286.140,362.180 285.600,362.400 285.600 C 362.620 285.600,362.800 284.880,362.800 284.000 C 362.800 283.120,362.980 282.400,363.200 282.400 C 363.420 282.400,363.600 281.860,363.600 281.200 C 363.600 280.540,363.780 280.000,364.000 280.000 C 364.220 280.000,364.400 279.460,364.400 278.800 C 364.400 278.140,364.580 277.600,364.800 277.600 C 365.020 277.600,365.200 277.060,365.200 276.400 C 365.200 275.740,365.380 275.200,365.600 275.200 C 365.820 275.200,366.000 274.750,366.000 274.200 C 366.000 273.650,366.180 273.200,366.400 273.200 C 366.620 273.200,366.800 272.660,366.800 272.000 C 366.800 271.340,366.980 270.800,367.200 270.800 C 367.420 270.800,367.600 270.080,367.600 269.200 C 367.600 268.320,367.780 267.600,368.000 267.600 C 368.220 267.600,368.400 267.060,368.400 266.400 C 368.400 265.740,368.580 265.200,368.800 265.200 C 369.020 265.200,369.200 264.660,369.200 264.000 C 369.200 263.340,369.380 262.800,369.600 262.800 C 369.820 262.800,370.000 262.260,370.000 261.600 C 370.000 260.940,370.180 260.400,370.400 260.400 C 370.620 260.400,370.800 259.860,370.800 259.200 C 370.800 258.540,370.980 258.000,371.200 258.000 C 371.420 258.000,371.600 257.280,371.600 256.400 C 371.600 255.520,371.780 254.800,372.000 254.800 C 372.220 254.800,372.400 254.438,372.400 253.995 C 372.400 253.552,372.563 252.877,372.763 252.495 C 373.360 251.353,374.400 247.578,374.400 246.554 C 374.400 246.029,374.580 245.600,374.800 245.600 C 375.020 245.600,375.200 244.880,375.200 244.000 C 375.200 243.120,375.380 242.400,375.600 242.400 C 375.820 242.400,376.000 241.950,376.000 241.400 C 376.000 240.850,376.180 240.400,376.400 240.400 C 376.620 240.400,376.800 239.860,376.800 239.200 C 376.800 238.540,376.980 238.000,377.200 238.000 C 377.420 238.000,377.600 237.460,377.600 236.800 C 377.600 236.140,377.780 235.600,378.000 235.600 C 378.220 235.600,378.400 235.060,378.400 234.400 C 378.400 233.740,378.580 233.200,378.800 233.200 C 379.020 233.200,379.200 232.480,379.200 231.600 C 379.200 230.720,379.380 230.000,379.600 230.000 C 379.820 230.000,380.000 229.460,380.000 228.800 C 380.000 228.140,380.180 227.600,380.400 227.600 C 380.620 227.600,380.800 227.060,380.800 226.400 C 380.800 225.740,380.980 225.200,381.200 225.200 C 381.420 225.200,381.600 224.750,381.600 224.200 C 381.600 223.650,381.780 223.200,382.000 223.200 C 382.220 223.200,382.400 222.660,382.400 222.000 C 382.400 221.340,382.580 220.800,382.800 220.800 C 383.020 220.800,383.200 220.260,383.200 219.600 C 383.200 218.940,383.380 218.400,383.600 218.400 C 383.820 218.400,384.000 217.691,384.000 216.824 C 384.000 215.957,384.180 215.136,384.400 215.000 C 384.620 214.864,384.800 214.313,384.800 213.776 C 384.800 213.239,384.980 212.800,385.200 212.800 C 385.420 212.800,385.600 212.271,385.600 211.624 C 385.600 210.977,385.780 210.336,386.000 210.200 C 386.220 210.064,386.400 209.601,386.400 209.171 C 386.400 208.741,386.580 208.032,386.800 207.595 C 387.020 207.158,387.380 206.442,387.600 206.005 C 387.820 205.568,388.000 204.668,388.000 204.005 C 388.000 203.342,388.141 202.800,388.313 202.800 C 388.485 202.800,388.666 202.305,388.716 201.700 C 388.766 201.095,388.985 200.540,389.203 200.467 C 389.422 200.393,389.600 199.896,389.600 199.361 C 389.600 198.827,389.763 198.077,389.963 197.695 C 390.609 196.460,391.600 192.741,391.600 191.554 C 391.600 190.919,391.780 190.400,392.000 190.400 C 392.220 190.400,392.400 189.860,392.400 189.200 C 392.400 188.540,392.580 188.000,392.800 188.000 C 393.020 188.000,393.200 187.460,393.200 186.800 C 393.200 186.140,393.380 185.600,393.600 185.600 C 393.820 185.600,394.000 185.060,394.000 184.400 C 394.000 183.740,394.180 183.200,394.400 183.200 C 394.620 183.200,394.800 182.660,394.800 182.000 C 394.800 181.340,394.980 180.800,395.200 180.800 C 395.420 180.800,395.600 180.080,395.600 179.200 C 395.600 178.320,395.780 177.600,396.000 177.600 C 396.220 177.600,396.400 177.060,396.400 176.400 C 396.400 175.740,396.580 175.200,396.800 175.200 C 397.020 175.200,397.200 174.750,397.200 174.200 C 397.200 173.650,397.380 173.200,397.600 173.200 C 397.820 173.200,398.000 172.671,398.000 172.024 C 398.000 171.377,398.180 170.736,398.400 170.600 C 398.620 170.464,398.800 169.928,398.800 169.410 C 398.800 168.891,398.986 168.405,399.213 168.329 C 399.985 168.072,400.218 161.333,399.455 161.333 C 399.095 161.333,398.800 161.483,398.800 161.667 " stroke="none" fill="#c46c24" fill-rule="evenodd"></path><path id="path1" d="M211.200 50.613 L 211.200 94.427 212.587 95.813 C 213.349 96.576,214.210 97.200,214.498 97.200 C 214.787 97.200,215.283 97.560,215.600 98.000 C 215.917 98.440,216.425 98.800,216.728 98.800 C 217.031 98.800,217.783 99.340,218.400 100.000 C 219.017 100.660,219.744 101.200,220.017 101.200 C 220.290 101.200,221.029 101.740,221.660 102.400 C 222.291 103.060,223.036 103.600,223.315 103.600 C 223.595 103.600,224.083 103.960,224.400 104.400 C 224.717 104.840,225.307 105.200,225.712 105.200 C 226.116 105.200,226.336 105.380,226.200 105.600 C 226.064 105.820,226.244 106.000,226.600 106.000 C 226.956 106.000,227.149 106.159,227.029 106.354 C 226.909 106.548,227.371 106.940,228.057 107.224 C 228.743 107.508,229.722 108.158,230.234 108.670 C 230.745 109.181,231.402 109.600,231.694 109.600 C 231.985 109.600,232.483 109.960,232.800 110.400 C 233.117 110.840,233.625 111.200,233.928 111.200 C 234.231 111.200,234.983 111.740,235.600 112.400 C 236.217 113.060,236.937 113.600,237.200 113.600 C 237.463 113.600,238.183 114.140,238.800 114.800 C 239.417 115.460,240.165 116.000,240.464 116.000 C 240.763 116.000,241.232 116.360,241.507 116.800 C 241.782 117.240,242.242 117.600,242.529 117.600 C 242.816 117.600,243.568 118.140,244.200 118.800 C 244.832 119.460,245.552 120.000,245.800 120.000 C 246.048 120.000,246.768 120.540,247.400 121.200 C 248.032 121.860,248.758 122.400,249.013 122.400 C 249.268 122.400,249.791 122.748,250.176 123.173 C 250.560 123.598,251.128 123.849,251.438 123.730 C 251.782 123.598,252.000 123.773,252.000 124.181 C 252.000 124.547,252.147 124.756,252.327 124.645 C 252.507 124.534,252.907 124.793,253.215 125.221 C 253.524 125.650,254.025 126.000,254.328 126.000 C 254.631 126.000,255.383 126.540,256.000 127.200 C 256.617 127.860,257.369 128.400,257.672 128.400 C 257.975 128.400,258.483 128.760,258.800 129.200 C 259.117 129.640,259.562 130.000,259.790 130.000 C 260.017 130.000,260.712 130.540,261.335 131.200 C 261.958 131.860,262.702 132.400,262.989 132.400 C 263.275 132.400,263.935 132.938,264.455 133.596 C 264.975 134.254,265.675 134.794,266.012 134.796 C 266.348 134.798,266.883 135.160,267.200 135.600 C 267.517 136.040,268.009 136.400,268.292 136.400 C 268.575 136.400,269.372 136.940,270.063 137.600 C 270.754 138.260,271.479 138.800,271.676 138.800 C 271.873 138.800,272.431 139.172,272.917 139.626 C 273.403 140.081,274.385 140.731,275.100 141.072 C 275.815 141.413,276.400 141.851,276.400 142.046 C 276.400 142.241,276.598 142.400,276.840 142.400 C 277.081 142.400,277.783 142.940,278.400 143.600 C 279.017 144.260,279.737 144.800,280.000 144.800 C 280.263 144.800,280.983 145.340,281.600 146.000 C 282.217 146.660,282.969 147.200,283.272 147.200 C 283.575 147.200,284.083 147.560,284.400 148.000 C 284.717 148.440,285.225 148.800,285.528 148.800 C 285.831 148.800,286.583 149.340,287.200 150.000 C 287.817 150.660,288.537 151.200,288.800 151.200 C 289.063 151.200,289.783 151.740,290.400 152.400 C 291.017 153.060,291.819 153.600,292.184 153.600 C 292.549 153.600,292.748 153.761,292.626 153.958 C 292.504 154.155,292.719 154.435,293.102 154.580 C 294.424 155.080,296.395 156.601,296.397 157.124 C 296.399 157.412,296.559 157.549,296.753 157.429 C 297.095 157.218,299.264 158.671,299.533 159.293 C 299.607 159.462,299.972 159.600,300.345 159.600 C 300.718 159.600,301.283 159.960,301.600 160.400 C 301.917 160.840,302.425 161.200,302.728 161.200 C 303.031 161.200,303.783 161.740,304.400 162.400 C 305.017 163.060,305.737 163.600,306.000 163.600 C 306.263 163.600,306.983 164.140,307.600 164.800 C 308.217 165.460,308.965 166.000,309.264 166.000 C 309.563 166.000,310.032 166.360,310.307 166.800 C 310.848 167.665,315.200 168.021,315.200 167.200 C 315.200 166.980,315.639 166.800,316.176 166.800 C 316.713 166.800,317.264 166.620,317.400 166.400 C 317.536 166.180,318.177 166.000,318.824 166.000 C 319.471 166.000,320.000 165.820,320.000 165.600 C 320.000 165.380,320.439 165.200,320.976 165.200 C 321.513 165.200,322.064 165.020,322.200 164.800 C 322.336 164.580,322.987 164.400,323.647 164.400 C 324.345 164.400,324.744 164.233,324.600 164.000 C 324.456 163.767,324.863 163.600,325.576 163.600 C 326.249 163.600,326.800 163.420,326.800 163.200 C 326.800 162.980,327.340 162.800,328.000 162.800 C 328.660 162.800,329.200 162.620,329.200 162.400 C 329.200 162.180,329.740 162.000,330.400 162.000 C 331.060 162.000,331.600 161.820,331.600 161.600 C 331.600 161.380,332.140 161.200,332.800 161.200 C 333.460 161.200,334.000 161.020,334.000 160.800 C 334.000 160.580,334.540 160.400,335.200 160.400 C 335.860 160.400,336.400 160.220,336.400 160.000 C 336.400 159.780,336.940 159.600,337.600 159.600 C 338.260 159.600,338.800 159.420,338.800 159.200 C 338.800 158.980,339.250 158.800,339.800 158.800 C 340.350 158.800,340.800 158.651,340.800 158.469 C 340.800 158.287,341.342 158.218,342.004 158.315 C 342.666 158.412,343.431 158.324,343.704 158.118 C 343.977 157.912,345.010 157.514,346.000 157.233 C 346.990 156.952,348.113 156.560,348.495 156.361 C 348.877 156.162,349.541 156.000,349.971 156.000 C 350.401 156.000,350.864 155.820,351.000 155.600 C 351.136 155.380,351.676 155.200,352.200 155.200 C 352.724 155.200,353.264 155.020,353.400 154.800 C 353.536 154.580,354.076 154.400,354.600 154.400 C 355.124 154.400,355.664 154.220,355.800 154.000 C 355.936 153.780,356.476 153.600,357.000 153.600 C 357.524 153.600,358.064 153.420,358.200 153.200 C 358.336 152.980,358.887 152.800,359.424 152.800 C 359.961 152.800,360.400 152.620,360.400 152.400 C 360.400 152.180,360.940 152.000,361.600 152.000 C 362.260 152.000,362.800 151.820,362.800 151.600 C 362.800 151.380,363.340 151.200,364.000 151.200 C 364.660 151.200,365.200 151.020,365.200 150.800 C 365.200 150.580,365.740 150.400,366.400 150.400 C 367.060 150.400,367.600 150.220,367.600 150.000 C 367.600 149.780,368.140 149.600,368.800 149.600 C 369.460 149.600,370.000 149.420,370.000 149.200 C 370.000 148.980,370.450 148.800,371.000 148.800 C 371.550 148.800,372.000 148.620,372.000 148.400 C 372.000 148.180,372.720 148.000,373.600 148.000 C 374.480 148.000,375.200 147.820,375.200 147.600 C 375.200 147.380,375.740 147.200,376.400 147.200 C 377.060 147.200,377.600 147.020,377.600 146.800 C 377.600 146.580,378.140 146.400,378.800 146.400 C 379.460 146.400,380.000 146.220,380.000 146.000 C 380.000 145.780,380.540 145.600,381.200 145.600 C 381.860 145.600,382.400 145.420,382.400 145.200 C 382.400 144.980,382.940 144.800,383.600 144.800 C 384.260 144.800,384.800 144.620,384.800 144.400 C 384.800 144.180,385.340 144.000,386.000 144.000 C 386.660 144.000,387.200 143.820,387.200 143.600 C 387.200 143.380,387.650 143.200,388.200 143.200 C 388.750 143.200,389.200 143.020,389.200 142.800 C 389.200 142.580,389.740 142.400,390.400 142.400 C 391.060 142.400,391.600 142.220,391.600 142.000 C 391.600 141.780,392.140 141.600,392.800 141.600 C 393.460 141.600,394.000 141.420,394.000 141.200 C 394.000 140.980,394.360 140.800,394.800 140.800 C 395.240 140.800,395.600 140.614,395.600 140.387 C 395.600 139.827,392.941 137.200,392.374 137.200 C 392.125 137.200,391.417 136.660,390.800 136.000 C 390.183 135.340,389.509 134.800,389.302 134.800 C 389.094 134.800,388.598 134.440,388.200 134.000 C 387.802 133.560,387.254 133.200,386.983 133.200 C 386.712 133.200,386.065 132.662,385.545 132.004 C 385.025 131.346,384.357 130.806,384.060 130.804 C 383.764 130.802,383.017 130.260,382.400 129.600 C 381.783 128.940,380.993 128.400,380.643 128.400 C 380.293 128.400,379.782 128.040,379.507 127.600 C 379.232 127.160,378.699 126.800,378.322 126.800 C 377.945 126.800,377.186 126.350,376.636 125.800 C 376.086 125.250,375.401 124.800,375.114 124.800 C 374.827 124.800,374.368 124.440,374.093 124.000 C 373.818 123.560,373.397 123.200,373.157 123.200 C 372.917 123.200,372.217 122.660,371.600 122.000 C 370.983 121.340,370.263 120.800,370.000 120.800 C 369.737 120.800,369.017 120.260,368.400 119.600 C 367.783 118.940,366.993 118.400,366.643 118.400 C 366.293 118.400,365.782 118.040,365.507 117.600 C 365.232 117.160,364.763 116.800,364.464 116.800 C 364.165 116.800,363.417 116.260,362.800 115.600 C 362.183 114.940,361.480 114.400,361.236 114.400 C 360.992 114.400,360.228 113.860,359.537 113.200 C 358.846 112.540,358.027 112.000,357.717 112.000 C 357.407 112.000,357.264 111.820,357.400 111.600 C 357.536 111.380,357.356 111.200,357.000 111.200 C 356.644 111.200,356.464 111.020,356.600 110.800 C 356.736 110.580,356.477 110.400,356.024 110.400 C 355.571 110.400,355.200 110.209,355.200 109.976 C 355.200 109.743,355.053 109.644,354.873 109.755 C 354.693 109.866,354.293 109.607,353.985 109.179 C 353.676 108.750,353.175 108.400,352.872 108.400 C 352.569 108.400,351.817 107.860,351.200 107.200 C 350.583 106.540,349.831 106.000,349.528 106.000 C 349.225 106.000,348.717 105.640,348.400 105.200 C 348.083 104.760,347.575 104.400,347.272 104.400 C 346.969 104.400,346.217 103.860,345.600 103.200 C 344.983 102.540,344.263 102.000,344.000 102.000 C 343.737 102.000,343.017 101.460,342.400 100.800 C 341.783 100.140,341.109 99.600,340.902 99.600 C 340.694 99.600,340.198 99.240,339.800 98.800 C 339.402 98.360,338.868 98.000,338.613 98.000 C 338.358 98.000,337.632 97.460,337.000 96.800 C 336.368 96.140,335.648 95.600,335.400 95.600 C 335.152 95.600,334.432 95.060,333.800 94.400 C 333.168 93.740,332.442 93.200,332.187 93.200 C 331.932 93.200,331.398 92.840,331.000 92.400 C 330.602 91.960,330.042 91.600,329.756 91.600 C 329.470 91.600,328.786 91.150,328.236 90.600 C 327.686 90.050,327.040 89.600,326.800 89.600 C 326.204 89.600,324.389 87.744,324.691 87.442 C 324.824 87.309,324.545 87.200,324.070 87.200 C 323.595 87.200,322.982 86.840,322.707 86.400 C 322.432 85.960,321.963 85.600,321.664 85.600 C 321.365 85.600,320.617 85.060,320.000 84.400 C 319.383 83.740,318.680 83.200,318.436 83.200 C 318.192 83.200,317.428 82.660,316.737 82.000 C 316.046 81.340,315.278 80.800,315.029 80.800 C 314.780 80.800,314.317 80.440,314.000 80.000 C 313.683 79.560,313.191 79.200,312.908 79.200 C 312.625 79.200,311.828 78.660,311.137 78.000 C 310.446 77.340,309.669 76.800,309.410 76.800 C 309.151 76.800,308.517 76.350,308.000 75.800 C 307.483 75.250,306.823 74.800,306.534 74.800 C 306.244 74.800,305.782 74.440,305.507 74.000 C 305.232 73.560,304.755 73.200,304.447 73.200 C 304.139 73.200,303.371 72.660,302.740 72.000 C 302.109 71.340,301.397 70.800,301.157 70.800 C 300.917 70.800,300.217 70.260,299.600 69.600 C 298.983 68.940,298.231 68.400,297.928 68.400 C 297.625 68.400,297.117 68.040,296.800 67.600 C 296.483 67.160,295.975 66.800,295.672 66.800 C 295.369 66.800,294.617 66.260,294.000 65.600 C 293.383 64.940,292.668 64.400,292.411 64.400 C 291.789 64.400,290.772 63.362,291.086 63.048 C 291.222 62.911,291.033 62.800,290.667 62.800 C 290.300 62.800,290.000 62.620,290.000 62.400 C 290.000 62.180,289.758 62.000,289.462 62.000 C 289.166 62.000,288.598 61.640,288.200 61.200 C 287.802 60.760,287.244 60.400,286.961 60.400 C 286.677 60.400,286.194 60.041,285.887 59.603 C 285.580 59.164,285.209 58.924,285.064 59.069 C 284.919 59.214,284.800 59.123,284.800 58.867 C 284.800 58.610,284.512 58.400,284.160 58.400 C 283.809 58.400,283.017 57.860,282.400 57.200 C 281.783 56.540,281.031 56.000,280.728 56.000 C 280.425 56.000,279.917 55.640,279.600 55.200 C 279.283 54.760,278.775 54.400,278.472 54.400 C 278.169 54.400,277.417 53.860,276.800 53.200 C 276.183 52.540,275.361 52.000,274.973 52.000 C 274.584 52.000,274.377 51.890,274.511 51.756 C 274.788 51.479,272.690 49.600,272.104 49.600 C 271.895 49.600,271.398 49.240,271.000 48.800 C 270.602 48.360,270.050 48.000,269.774 48.000 C 269.497 48.000,268.817 47.460,268.261 46.800 C 267.706 46.140,267.010 45.600,266.714 45.600 C 266.418 45.600,265.924 45.250,265.615 44.821 C 265.307 44.393,264.928 44.121,264.774 44.216 C 264.456 44.413,262.365 42.894,261.880 42.114 C 261.704 41.831,261.307 41.600,260.998 41.600 C 260.689 41.600,259.986 41.150,259.436 40.600 C 258.886 40.050,258.201 39.600,257.914 39.600 C 257.627 39.600,257.168 39.240,256.893 38.800 C 256.618 38.360,256.197 38.000,255.957 38.000 C 255.717 38.000,255.017 37.460,254.400 36.800 C 253.783 36.140,253.063 35.600,252.800 35.600 C 252.537 35.600,251.817 35.060,251.200 34.400 C 250.583 33.740,249.831 33.200,249.528 33.200 C 249.225 33.200,248.717 32.840,248.400 32.400 C 248.083 31.960,247.575 31.600,247.272 31.600 C 246.969 31.600,246.217 31.060,245.600 30.400 C 244.983 29.740,244.273 29.200,244.021 29.200 C 243.770 29.200,243.101 28.738,242.537 28.173 C 241.972 27.608,241.125 26.978,240.655 26.774 C 239.297 26.183,238.304 25.482,237.152 24.300 C 236.562 23.695,235.863 23.200,235.600 23.200 C 235.337 23.200,234.617 22.660,234.000 22.000 C 233.383 21.340,232.631 20.800,232.328 20.800 C 232.025 20.800,231.517 20.440,231.200 20.000 C 230.883 19.560,230.375 19.200,230.072 19.200 C 229.769 19.200,229.017 18.660,228.400 18.000 C 227.783 17.340,227.063 16.800,226.800 16.800 C 226.537 16.800,225.817 16.260,225.200 15.600 C 224.583 14.940,223.909 14.400,223.702 14.400 C 223.494 14.400,222.998 14.040,222.600 13.600 C 222.202 13.160,221.668 12.800,221.413 12.800 C 221.158 12.800,220.432 12.260,219.800 11.600 C 219.168 10.940,218.457 10.400,218.221 10.400 C 217.985 10.400,217.307 9.950,216.713 9.400 C 216.120 8.850,215.397 8.400,215.106 8.400 C 214.815 8.400,214.317 8.040,214.000 7.600 C 213.661 7.130,212.965 6.800,212.312 6.800 L 211.200 6.800 211.200 50.613 " stroke="none" fill="#d47424" fill-rule="evenodd"></path><path id="path2" d="M136.400 321.440 C 136.400 321.791,135.860 322.583,135.200 323.200 C 134.540 323.817,134.000 324.569,134.000 324.872 C 134.000 325.175,133.640 325.683,133.200 326.000 C 132.760 326.317,132.400 326.805,132.400 327.085 C 132.400 327.364,131.860 328.109,131.200 328.740 C 130.540 329.371,130.000 330.064,130.000 330.281 C 130.000 330.498,129.640 331.002,129.200 331.400 C 128.760 331.798,128.400 332.365,128.400 332.659 C 128.400 332.953,127.860 333.675,127.200 334.263 C 126.540 334.851,126.000 335.564,126.000 335.848 C 126.000 336.132,125.550 336.814,125.000 337.364 C 124.450 337.914,124.000 338.602,124.000 338.894 C 124.000 339.185,123.640 339.683,123.200 340.000 C 122.760 340.317,122.400 340.805,122.400 341.085 C 122.400 341.364,121.860 342.109,121.200 342.740 C 120.540 343.371,120.000 344.091,120.000 344.340 C 120.000 344.589,119.640 345.018,119.200 345.293 C 118.760 345.568,118.400 346.029,118.400 346.318 C 118.400 346.607,117.861 347.419,117.202 348.122 C 116.543 348.825,116.003 349.585,116.002 349.812 C 116.001 350.038,115.640 350.483,115.200 350.800 C 114.760 351.117,114.400 351.617,114.400 351.910 C 114.400 352.203,113.861 353.019,113.202 353.722 C 112.543 354.425,112.003 355.185,112.002 355.412 C 112.001 355.638,111.640 356.083,111.200 356.400 C 110.760 356.717,110.400 357.265,110.400 357.619 C 110.400 357.972,109.950 358.683,109.400 359.200 C 108.850 359.717,108.400 360.334,108.400 360.571 C 108.400 360.808,107.860 361.512,107.200 362.135 C 106.540 362.758,106.000 363.521,106.000 363.831 C 106.000 364.140,105.640 364.618,105.200 364.893 C 104.760 365.168,104.400 365.637,104.400 365.936 C 104.400 366.235,103.860 366.983,103.200 367.600 C 102.540 368.217,102.000 369.007,102.000 369.357 C 102.000 369.707,101.640 370.218,101.200 370.493 C 100.760 370.768,100.400 371.289,100.400 371.651 C 100.400 372.014,99.862 372.735,99.204 373.255 C 98.546 373.775,98.006 374.475,98.004 374.812 C 98.002 375.148,97.640 375.683,97.200 376.000 C 96.760 376.317,96.400 376.773,96.400 377.013 C 96.400 377.254,95.860 377.968,95.200 378.600 C 94.540 379.232,94.000 379.888,94.000 380.057 C 94.000 380.482,92.202 383.211,91.214 384.286 C 90.766 384.773,90.400 385.376,90.400 385.625 C 90.400 385.875,89.860 386.583,89.200 387.200 C 88.540 387.817,88.000 388.526,88.000 388.777 C 88.000 389.028,87.640 389.620,87.200 390.092 C 86.760 390.564,86.400 391.457,86.400 392.075 L 86.400 393.200 200.400 393.200 C 301.467 393.200,314.400 393.132,314.400 392.600 C 314.400 392.270,314.220 392.000,314.000 392.000 C 313.780 392.000,313.600 391.764,313.600 391.475 C 313.600 391.187,313.240 390.564,312.800 390.092 C 312.360 389.620,312.000 389.028,312.000 388.777 C 312.000 388.526,311.460 387.817,310.800 387.200 C 310.140 386.583,309.600 385.831,309.600 385.528 C 309.600 385.225,309.240 384.717,308.800 384.400 C 308.360 384.083,308.000 383.585,308.000 383.294 C 308.000 383.003,307.550 382.280,307.000 381.687 C 306.450 381.093,306.000 380.415,306.000 380.179 C 306.000 379.943,305.460 379.232,304.800 378.600 C 304.140 377.968,303.600 377.254,303.600 377.013 C 303.600 376.773,303.240 376.317,302.800 376.000 C 302.360 375.683,301.998 375.148,301.996 374.812 C 301.994 374.475,301.454 373.775,300.796 373.255 C 300.138 372.735,299.600 372.014,299.600 371.651 C 299.600 371.289,299.240 370.768,298.800 370.493 C 298.360 370.218,298.000 369.707,298.000 369.357 C 298.000 369.007,297.460 368.217,296.800 367.600 C 296.140 366.983,295.600 366.235,295.600 365.936 C 295.600 365.637,295.240 365.168,294.800 364.893 C 294.360 364.618,294.000 364.149,294.000 363.851 C 294.000 363.553,293.518 362.827,292.928 362.237 C 291.859 361.168,291.182 360.162,290.444 358.545 C 290.230 358.075,289.592 357.228,289.027 356.663 C 288.462 356.099,287.999 355.493,287.998 355.318 C 287.997 355.143,287.457 354.425,286.798 353.722 C 286.139 353.019,285.600 352.203,285.600 351.910 C 285.600 351.617,285.240 351.117,284.800 350.800 C 284.360 350.483,283.999 350.038,283.998 349.812 C 283.997 349.585,283.457 348.825,282.798 348.122 C 282.139 347.419,281.600 346.607,281.600 346.318 C 281.600 346.029,281.240 345.568,280.800 345.293 C 280.360 345.018,280.000 344.589,280.000 344.340 C 280.000 344.091,279.460 343.371,278.800 342.740 C 278.140 342.109,277.600 341.364,277.600 341.085 C 277.600 340.805,277.240 340.317,276.800 340.000 C 276.360 339.683,276.000 339.185,276.000 338.894 C 276.000 338.602,275.550 337.914,275.000 337.364 C 274.450 336.814,274.000 336.130,274.000 335.844 C 274.000 335.558,273.640 334.998,273.200 334.600 C 272.760 334.202,272.400 333.668,272.400 333.413 C 272.400 333.158,271.860 332.432,271.200 331.800 C 270.540 331.168,270.000 330.478,270.000 330.268 C 270.000 330.058,269.460 329.371,268.800 328.740 C 268.140 328.109,267.600 327.364,267.600 327.085 C 267.600 326.805,267.240 326.317,266.800 326.000 C 266.360 325.683,266.000 325.175,266.000 324.872 C 266.000 324.569,265.460 323.817,264.800 323.200 C 264.140 322.583,263.600 321.791,263.600 321.440 C 263.600 320.856,258.013 320.800,200.000 320.800 C 141.987 320.800,136.400 320.856,136.400 321.440 " stroke="none" fill="#bc641c" fill-rule="evenodd"></path><path id="path3" d="M186.000 7.600 C 185.683 8.040,185.103 8.400,184.712 8.400 C 184.320 8.400,184.000 8.591,184.000 8.824 C 184.000 9.057,183.853 9.156,183.673 9.045 C 183.493 8.934,183.093 9.193,182.785 9.621 C 182.476 10.050,181.982 10.400,181.686 10.400 C 181.390 10.400,180.694 10.940,180.139 11.600 C 179.583 12.260,178.825 12.800,178.453 12.800 C 178.081 12.800,177.517 13.160,177.200 13.600 C 176.883 14.040,176.413 14.400,176.157 14.400 C 175.900 14.400,175.265 14.938,174.745 15.596 C 174.225 16.254,173.557 16.794,173.260 16.796 C 172.964 16.798,172.217 17.340,171.600 18.000 C 170.983 18.660,170.231 19.200,169.928 19.200 C 169.625 19.200,169.117 19.560,168.800 20.000 C 168.483 20.440,167.975 20.800,167.672 20.800 C 167.369 20.800,166.617 21.340,166.000 22.000 C 165.383 22.660,164.715 23.200,164.515 23.200 C 164.315 23.200,163.802 23.515,163.375 23.900 C 162.286 24.884,159.420 26.800,159.039 26.800 C 158.864 26.800,158.217 27.340,157.600 28.000 C 156.983 28.660,156.263 29.200,156.000 29.200 C 155.737 29.200,155.017 29.740,154.400 30.400 C 153.783 31.060,153.031 31.600,152.728 31.600 C 152.425 31.600,151.917 31.960,151.600 32.400 C 151.283 32.840,150.795 33.200,150.515 33.200 C 150.236 33.200,149.491 33.740,148.860 34.400 C 148.229 35.060,147.461 35.600,147.152 35.600 C 146.843 35.600,146.248 36.055,145.830 36.612 C 145.412 37.169,144.471 37.909,143.738 38.256 C 143.006 38.604,142.506 39.048,142.627 39.244 C 142.748 39.440,142.549 39.600,142.184 39.600 C 141.819 39.600,141.017 40.140,140.400 40.800 C 139.783 41.460,139.036 42.006,138.740 42.013 C 138.016 42.031,136.400 43.408,136.400 44.007 C 136.400 44.286,136.127 44.381,135.744 44.234 C 135.332 44.076,134.877 44.283,134.521 44.791 C 134.210 45.236,133.722 45.600,133.437 45.600 C 133.152 45.600,132.354 46.140,131.663 46.800 C 130.972 47.460,130.217 48.000,129.985 48.000 C 129.400 48.000,127.594 49.860,127.891 50.158 C 128.024 50.291,127.643 50.400,127.043 50.400 C 126.443 50.400,126.047 50.553,126.163 50.740 C 126.278 50.927,125.884 51.332,125.286 51.640 C 124.689 51.948,123.723 52.695,123.140 53.300 C 122.556 53.905,121.863 54.400,121.600 54.400 C 121.337 54.400,120.617 54.940,120.000 55.600 C 119.383 56.260,118.631 56.800,118.328 56.800 C 118.025 56.800,117.517 57.160,117.200 57.600 C 116.883 58.040,116.313 58.400,115.934 58.400 C 115.555 58.400,114.994 58.759,114.687 59.197 C 114.380 59.636,114.009 59.876,113.864 59.731 C 113.719 59.586,113.600 59.677,113.600 59.933 C 113.600 60.190,113.324 60.400,112.987 60.400 C 112.649 60.400,111.725 61.006,110.933 61.747 C 108.515 64.009,108.017 64.400,107.560 64.400 C 107.319 64.400,106.617 64.940,106.000 65.600 C 105.383 66.260,104.631 66.800,104.328 66.800 C 104.025 66.800,103.517 67.160,103.200 67.600 C 102.883 68.040,102.375 68.400,102.072 68.400 C 101.769 68.400,101.017 68.940,100.400 69.600 C 99.783 70.260,99.063 70.800,98.800 70.800 C 98.537 70.800,97.817 71.340,97.200 72.000 C 96.583 72.660,95.831 73.200,95.528 73.200 C 95.225 73.200,94.717 73.560,94.400 74.000 C 94.083 74.440,93.515 74.800,93.139 74.800 C 92.762 74.800,92.339 75.163,92.198 75.606 C 92.057 76.049,91.775 76.308,91.571 76.182 C 91.367 76.056,91.200 76.143,91.200 76.376 C 91.200 76.609,90.912 76.800,90.560 76.800 C 90.209 76.800,89.417 77.340,88.800 78.000 C 88.183 78.660,87.431 79.200,87.128 79.200 C 86.825 79.200,86.317 79.560,86.000 80.000 C 85.683 80.440,85.220 80.800,84.971 80.800 C 84.722 80.800,83.954 81.340,83.263 82.000 C 82.572 82.660,81.808 83.200,81.564 83.200 C 81.320 83.200,80.644 83.695,80.060 84.300 C 79.477 84.905,78.505 85.655,77.900 85.968 C 77.295 86.280,76.800 86.685,76.800 86.868 C 76.800 87.050,76.602 87.200,76.360 87.200 C 76.119 87.200,75.417 87.740,74.800 88.400 C 74.183 89.060,73.463 89.600,73.200 89.600 C 72.937 89.600,72.217 90.140,71.600 90.800 C 70.983 91.460,70.204 92.000,69.868 92.000 C 69.532 92.000,68.994 92.264,68.671 92.586 C 68.349 92.908,67.843 93.223,67.547 93.286 C 67.250 93.349,66.529 93.895,65.943 94.500 C 65.358 95.105,64.636 95.602,64.340 95.604 C 64.043 95.606,63.375 96.146,62.855 96.804 C 62.335 97.462,61.610 98.000,61.243 98.000 C 60.877 98.000,60.317 98.360,60.000 98.800 C 59.683 99.240,59.265 99.600,59.072 99.600 C 58.879 99.600,58.217 100.140,57.600 100.800 C 56.983 101.460,56.263 102.000,56.000 102.000 C 55.737 102.000,55.017 102.540,54.400 103.200 C 53.783 103.860,53.031 104.400,52.728 104.400 C 52.425 104.400,51.917 104.760,51.600 105.200 C 51.283 105.640,50.775 106.000,50.472 106.000 C 50.169 106.000,49.417 106.540,48.800 107.200 C 48.183 107.860,47.401 108.400,47.062 108.400 C 46.723 108.400,46.210 108.716,45.923 109.102 C 45.405 109.796,42.247 112.000,41.769 112.000 C 41.633 112.000,41.017 112.540,40.400 113.200 C 39.783 113.860,38.991 114.400,38.640 114.400 C 38.288 114.400,38.000 114.681,38.000 115.024 C 38.000 115.367,37.853 115.556,37.673 115.445 C 37.493 115.334,37.093 115.593,36.785 116.021 C 36.476 116.450,35.943 116.800,35.600 116.800 C 35.257 116.800,34.717 117.160,34.400 117.600 C 34.083 118.040,33.620 118.400,33.371 118.400 C 33.122 118.400,32.354 118.940,31.663 119.600 C 30.972 120.260,30.208 120.800,29.964 120.800 C 29.720 120.800,29.044 121.295,28.460 121.900 C 27.877 122.505,26.905 123.255,26.300 123.568 C 25.695 123.880,25.200 124.285,25.200 124.468 C 25.200 124.650,24.930 124.800,24.600 124.800 C 24.270 124.800,24.000 125.010,24.000 125.267 C 24.000 125.523,23.881 125.614,23.736 125.469 C 23.591 125.324,23.220 125.564,22.913 126.003 C 22.606 126.441,22.005 126.800,21.577 126.800 C 21.118 126.800,20.800 127.073,20.800 127.467 C 20.800 127.833,20.683 128.017,20.541 127.874 C 20.398 127.731,19.993 127.928,19.641 128.310 C 19.288 128.693,18.505 129.260,17.900 129.570 C 17.295 129.881,16.800 130.285,16.800 130.468 C 16.800 130.650,16.564 130.800,16.275 130.800 C 15.986 130.800,15.232 131.340,14.600 132.000 C 13.968 132.660,13.169 133.202,12.825 133.204 C 12.481 133.206,11.775 133.746,11.255 134.404 C 10.735 135.062,10.062 135.600,9.758 135.600 C 9.455 135.600,8.982 135.960,8.707 136.400 C 8.432 136.840,7.975 137.200,7.690 137.200 C 7.406 137.200,6.549 137.824,5.787 138.587 C 4.219 140.155,3.914 141.408,5.200 141.000 C 5.659 140.854,6.000 140.928,6.000 141.173 C 6.000 141.408,6.540 141.600,7.200 141.600 C 7.860 141.600,8.400 141.780,8.400 142.000 C 8.400 142.220,8.850 142.400,9.400 142.400 C 9.950 142.400,10.400 142.580,10.400 142.800 C 10.400 143.020,10.940 143.200,11.600 143.200 C 12.260 143.200,12.800 143.380,12.800 143.600 C 12.800 143.820,13.340 144.000,14.000 144.000 C 14.660 144.000,15.200 144.180,15.200 144.400 C 15.200 144.620,15.740 144.800,16.400 144.800 C 17.060 144.800,17.600 144.980,17.600 145.200 C 17.600 145.420,18.140 145.600,18.800 145.600 C 19.460 145.600,20.000 145.780,20.000 146.000 C 20.000 146.220,20.720 146.400,21.600 146.400 C 22.480 146.400,23.200 146.580,23.200 146.800 C 23.200 147.020,23.639 147.200,24.176 147.200 C 24.713 147.200,25.264 147.380,25.400 147.600 C 25.536 147.820,26.087 148.000,26.624 148.000 C 27.161 148.000,27.600 148.180,27.600 148.400 C 27.600 148.620,28.140 148.800,28.800 148.800 C 29.460 148.800,30.000 148.980,30.000 149.200 C 30.000 149.420,30.540 149.600,31.200 149.600 C 31.860 149.600,32.400 149.780,32.400 150.000 C 32.400 150.220,32.940 150.400,33.600 150.400 C 34.260 150.400,34.800 150.580,34.800 150.800 C 34.800 151.020,35.340 151.200,36.000 151.200 C 36.660 151.200,37.200 151.380,37.200 151.600 C 37.200 151.820,37.740 152.000,38.400 152.000 C 39.060 152.000,39.600 152.180,39.600 152.400 C 39.600 152.620,40.140 152.800,40.800 152.800 C 41.460 152.800,42.000 152.980,42.000 153.200 C 42.000 153.420,42.450 153.600,43.000 153.600 C 43.550 153.600,44.000 153.780,44.000 154.000 C 44.000 154.220,44.529 154.400,45.176 154.400 C 45.823 154.400,46.464 154.580,46.600 154.800 C 46.736 155.020,47.287 155.200,47.824 155.200 C 48.361 155.200,48.800 155.375,48.800 155.590 C 48.800 155.806,49.311 155.878,49.942 155.752 C 50.768 155.586,51.153 155.700,51.330 156.162 C 51.489 156.577,52.061 156.800,52.964 156.800 C 53.728 156.800,54.449 156.956,54.567 157.146 C 54.685 157.337,55.235 157.406,55.790 157.300 C 56.382 157.187,56.800 157.292,56.800 157.553 C 56.800 157.799,57.250 158.000,57.800 158.000 C 58.350 158.000,58.800 158.180,58.800 158.400 C 58.800 158.620,59.340 158.800,60.000 158.800 C 60.660 158.800,61.200 158.980,61.200 159.200 C 61.200 159.420,61.740 159.600,62.400 159.600 C 63.060 159.600,63.600 159.780,63.600 160.000 C 63.600 160.220,64.140 160.400,64.800 160.400 C 65.460 160.400,66.000 160.580,66.000 160.800 C 66.000 161.020,66.540 161.200,67.200 161.200 C 67.860 161.200,68.400 161.380,68.400 161.600 C 68.400 161.820,68.940 162.000,69.600 162.000 C 70.260 162.000,70.800 162.180,70.800 162.400 C 70.800 162.620,71.340 162.800,72.000 162.800 C 72.660 162.800,73.200 162.980,73.200 163.200 C 73.200 163.420,73.639 163.600,74.176 163.600 C 74.713 163.600,75.264 163.780,75.400 164.000 C 75.536 164.220,76.187 164.400,76.847 164.400 C 77.545 164.400,77.944 164.567,77.800 164.800 C 77.656 165.033,78.063 165.200,78.776 165.200 C 79.449 165.200,80.000 165.380,80.000 165.600 C 80.000 165.820,80.540 166.000,81.200 166.000 C 81.860 166.000,82.400 166.180,82.400 166.400 C 82.400 166.620,82.940 166.800,83.600 166.800 C 84.260 166.800,84.800 166.980,84.800 167.200 C 84.800 167.999,89.020 167.662,89.800 166.800 C 90.198 166.360,90.694 166.000,90.902 166.000 C 91.109 166.000,91.783 165.460,92.400 164.800 C 93.017 164.140,93.737 163.600,94.000 163.600 C 94.263 163.600,94.983 163.060,95.600 162.400 C 96.217 161.740,96.969 161.200,97.272 161.200 C 97.575 161.200,98.083 160.840,98.400 160.400 C 98.717 159.960,99.225 159.600,99.528 159.600 C 99.831 159.600,100.583 159.060,101.200 158.400 C 101.817 157.740,102.566 157.200,102.865 157.200 C 103.164 157.200,103.893 156.750,104.487 156.200 C 105.080 155.650,105.800 155.200,106.086 155.200 C 106.373 155.200,106.832 154.840,107.107 154.400 C 107.382 153.960,107.803 153.600,108.043 153.600 C 108.283 153.600,108.983 153.060,109.600 152.400 C 110.217 151.740,110.937 151.200,111.200 151.200 C 111.463 151.200,112.183 150.660,112.800 150.000 C 113.417 149.340,114.169 148.800,114.472 148.800 C 114.775 148.800,115.283 148.440,115.600 148.000 C 115.917 147.560,116.425 147.200,116.728 147.200 C 117.031 147.200,117.783 146.660,118.400 146.000 C 119.017 145.340,119.737 144.800,120.000 144.800 C 120.263 144.800,120.983 144.260,121.600 143.600 C 122.217 142.940,123.019 142.400,123.384 142.400 C 123.749 142.400,123.936 142.220,123.800 142.000 C 123.664 141.780,123.833 141.600,124.176 141.600 C 124.519 141.600,124.800 141.405,124.800 141.167 C 124.800 140.928,125.019 140.806,125.286 140.895 C 125.553 140.984,126.199 140.549,126.721 139.929 C 127.244 139.308,127.943 138.800,128.275 138.800 C 128.607 138.800,129.383 138.260,130.000 137.600 C 130.617 136.940,131.369 136.400,131.672 136.400 C 131.975 136.400,132.483 136.040,132.800 135.600 C 133.117 135.160,133.625 134.800,133.928 134.800 C 134.231 134.800,134.983 134.260,135.600 133.600 C 136.217 132.940,136.917 132.400,137.157 132.400 C 137.397 132.400,138.109 131.860,138.740 131.200 C 139.371 130.540,140.170 130.000,140.516 130.000 C 140.863 130.000,141.260 129.640,141.400 129.200 C 141.540 128.760,141.930 128.400,142.266 128.400 C 142.603 128.400,143.383 127.860,144.000 127.200 C 144.617 126.540,145.344 126.000,145.617 126.000 C 145.890 126.000,146.640 125.449,147.283 124.776 C 147.927 124.102,148.649 123.616,148.888 123.696 C 149.127 123.776,149.747 123.417,150.265 122.899 C 150.783 122.381,151.385 122.067,151.603 122.202 C 151.822 122.337,152.000 122.240,152.000 121.988 C 152.000 121.435,153.611 120.032,154.266 120.013 C 154.522 120.006,155.242 119.460,155.865 118.800 C 156.488 118.140,157.183 117.600,157.410 117.600 C 157.638 117.600,158.083 117.240,158.400 116.800 C 158.717 116.360,159.225 116.000,159.528 116.000 C 159.831 116.000,160.583 115.460,161.200 114.800 C 161.817 114.140,162.569 113.600,162.872 113.600 C 163.175 113.600,163.683 113.240,164.000 112.800 C 164.317 112.360,164.825 112.000,165.128 112.000 C 165.431 112.000,166.183 111.460,166.800 110.800 C 167.417 110.140,168.137 109.600,168.400 109.600 C 168.663 109.600,169.396 109.046,170.028 108.370 C 170.661 107.693,171.340 107.239,171.539 107.362 C 171.737 107.485,172.235 107.138,172.645 106.592 C 173.054 106.047,173.609 105.600,173.877 105.600 C 174.145 105.600,174.814 105.150,175.364 104.600 C 175.914 104.050,176.570 103.600,176.821 103.600 C 177.073 103.600,177.783 103.060,178.400 102.400 C 179.017 101.740,179.765 101.200,180.064 101.200 C 180.363 101.200,180.832 100.840,181.107 100.400 C 181.382 99.960,181.893 99.600,182.243 99.600 C 182.593 99.600,183.383 99.060,184.000 98.400 C 184.617 97.740,185.339 97.200,185.607 97.200 C 185.874 97.200,186.701 96.535,187.446 95.722 L 188.800 94.244 188.800 50.522 L 188.800 6.800 187.688 6.800 C 187.035 6.800,186.339 7.130,186.000 7.600 " stroke="none" fill="#dc7c24" fill-rule="evenodd"></path><path id="path4" d="M0.128 164.696 C 0.264 166.618,0.560 168.253,0.787 168.329 C 1.014 168.405,1.200 168.992,1.200 169.633 C 1.200 170.275,1.380 170.800,1.600 170.800 C 1.820 170.800,2.000 171.340,2.000 172.000 C 2.000 172.660,2.180 173.200,2.400 173.200 C 2.620 173.200,2.800 173.650,2.800 174.200 C 2.800 174.750,2.980 175.200,3.200 175.200 C 3.420 175.200,3.600 175.740,3.600 176.400 C 3.600 177.060,3.780 177.600,4.000 177.600 C 4.220 177.600,4.400 178.320,4.400 179.200 C 4.400 180.080,4.580 180.800,4.800 180.800 C 5.020 180.800,5.200 181.340,5.200 182.000 C 5.200 182.660,5.380 183.200,5.600 183.200 C 5.820 183.200,6.000 183.740,6.000 184.400 C 6.000 185.060,6.180 185.600,6.400 185.600 C 6.620 185.600,6.800 186.140,6.800 186.800 C 6.800 187.460,6.980 188.000,7.200 188.000 C 7.420 188.000,7.600 188.439,7.600 188.976 C 7.600 189.513,7.759 190.051,7.953 190.171 C 8.147 190.291,8.431 191.561,8.585 192.994 C 8.738 194.427,9.029 195.600,9.232 195.600 C 9.434 195.600,9.600 196.140,9.600 196.800 C 9.600 197.460,9.780 198.000,10.000 198.000 C 10.220 198.000,10.400 198.540,10.400 199.200 C 10.400 199.860,10.580 200.400,10.800 200.400 C 11.020 200.400,11.200 200.940,11.200 201.600 C 11.200 202.260,11.380 202.800,11.600 202.800 C 11.820 202.800,12.000 203.520,12.000 204.400 C 12.000 205.280,12.180 206.000,12.400 206.000 C 12.620 206.000,12.800 206.439,12.800 206.976 C 12.800 207.513,12.980 208.064,13.200 208.200 C 13.420 208.336,13.600 208.887,13.600 209.424 C 13.600 209.961,13.780 210.400,14.000 210.400 C 14.220 210.400,14.400 210.940,14.400 211.600 C 14.400 212.260,14.580 212.800,14.800 212.800 C 15.020 212.800,15.200 213.340,15.200 214.000 C 15.200 214.660,15.380 215.200,15.600 215.200 C 15.820 215.200,16.000 215.920,16.000 216.800 C 16.000 217.680,16.180 218.400,16.400 218.400 C 16.620 218.400,16.800 218.940,16.800 219.600 C 16.800 220.260,16.980 220.800,17.200 220.800 C 17.420 220.800,17.600 221.239,17.600 221.776 C 17.600 222.313,17.780 222.864,18.000 223.000 C 18.220 223.136,18.400 223.687,18.400 224.224 C 18.400 224.761,18.580 225.200,18.800 225.200 C 19.020 225.200,19.200 225.740,19.200 226.400 C 19.200 227.060,19.380 227.600,19.600 227.600 C 19.820 227.600,20.000 228.140,20.000 228.800 C 20.000 229.460,20.180 230.000,20.400 230.000 C 20.620 230.000,20.800 230.720,20.800 231.600 C 20.800 232.480,20.980 233.200,21.200 233.200 C 21.420 233.200,21.600 233.740,21.600 234.400 C 21.600 235.060,21.780 235.600,22.000 235.600 C 22.220 235.600,22.400 236.140,22.400 236.800 C 22.400 237.460,22.580 238.000,22.800 238.000 C 23.020 238.000,23.200 238.540,23.200 239.200 C 23.200 239.860,23.380 240.400,23.600 240.400 C 23.820 240.400,24.000 240.850,24.000 241.400 C 24.000 241.950,24.180 242.400,24.400 242.400 C 24.620 242.400,24.808 243.075,24.818 243.900 C 24.827 244.725,25.095 246.120,25.412 247.000 C 25.729 247.880,25.991 249.005,25.994 249.500 C 25.997 249.995,26.180 250.400,26.400 250.400 C 26.620 250.400,26.800 250.940,26.800 251.600 C 26.800 252.260,26.980 252.800,27.200 252.800 C 27.420 252.800,27.600 253.239,27.600 253.776 C 27.600 254.313,27.780 254.864,28.000 255.000 C 28.220 255.136,28.400 255.856,28.400 256.600 C 28.400 257.344,28.580 258.064,28.800 258.200 C 29.020 258.336,29.200 258.887,29.200 259.424 C 29.200 259.961,29.380 260.400,29.600 260.400 C 29.820 260.400,30.000 260.940,30.000 261.600 C 30.000 262.260,30.180 262.800,30.400 262.800 C 30.620 262.800,30.800 263.340,30.800 264.000 C 30.800 264.660,30.980 265.200,31.200 265.200 C 31.420 265.200,31.600 265.740,31.600 266.400 C 31.600 267.060,31.780 267.600,32.000 267.600 C 32.220 267.600,32.400 268.320,32.400 269.200 C 32.400 270.080,32.580 270.800,32.800 270.800 C 33.020 270.800,33.200 271.340,33.200 272.000 C 33.200 272.660,33.380 273.200,33.600 273.200 C 33.820 273.200,34.000 273.650,34.000 274.200 C 34.000 274.750,34.180 275.200,34.400 275.200 C 34.620 275.200,34.800 275.740,34.800 276.400 C 34.800 277.060,34.980 277.600,35.200 277.600 C 35.420 277.600,35.600 278.140,35.600 278.800 C 35.600 279.460,35.780 280.000,36.000 280.000 C 36.220 280.000,36.400 280.540,36.400 281.200 C 36.400 281.860,36.580 282.400,36.800 282.400 C 37.020 282.400,37.200 283.120,37.200 284.000 C 37.200 284.880,37.380 285.600,37.600 285.600 C 37.820 285.600,38.000 286.140,38.000 286.800 C 38.000 287.460,38.180 288.000,38.400 288.000 C 38.620 288.000,38.800 288.540,38.800 289.200 C 38.800 289.860,38.980 290.400,39.200 290.400 C 39.420 290.400,39.600 290.850,39.600 291.400 C 39.600 291.950,39.780 292.400,40.000 292.400 C 40.220 292.400,40.400 292.940,40.400 293.600 C 40.400 294.260,40.580 294.800,40.800 294.800 C 41.020 294.800,41.200 295.520,41.200 296.400 C 41.200 297.311,41.392 298.000,41.647 298.000 C 41.909 298.000,42.013 298.418,41.900 299.010 C 41.777 299.657,41.925 300.142,42.313 300.359 C 42.691 300.571,42.836 301.019,42.697 301.549 C 42.575 302.017,42.638 302.500,42.838 302.623 C 43.037 302.746,43.200 303.276,43.200 303.800 C 43.200 304.324,43.380 304.864,43.600 305.000 C 43.820 305.136,44.000 305.687,44.000 306.224 C 44.000 306.761,44.180 307.200,44.400 307.200 C 44.620 307.200,44.800 307.920,44.800 308.800 C 44.800 309.680,44.980 310.400,45.200 310.400 C 45.420 310.400,45.600 310.940,45.600 311.600 C 45.600 312.260,45.780 312.800,46.000 312.800 C 46.220 312.800,46.400 313.340,46.400 314.000 C 46.400 314.660,46.580 315.200,46.800 315.200 C 47.020 315.200,47.200 315.740,47.200 316.400 C 47.200 317.060,47.380 317.600,47.600 317.600 C 47.820 317.600,48.000 318.140,48.000 318.800 C 48.000 319.460,48.180 320.000,48.400 320.000 C 48.620 320.000,48.800 320.720,48.800 321.600 C 48.800 322.480,48.980 323.200,49.200 323.200 C 49.420 323.200,49.600 323.650,49.600 324.200 C 49.600 324.750,49.780 325.200,50.000 325.200 C 50.220 325.200,50.400 325.740,50.400 326.400 C 50.400 327.060,50.580 327.600,50.800 327.600 C 51.020 327.600,51.200 328.140,51.200 328.800 C 51.200 329.460,51.380 330.000,51.600 330.000 C 51.820 330.000,52.000 330.540,52.000 331.200 C 52.000 331.860,52.180 332.400,52.400 332.400 C 52.620 332.400,52.800 332.940,52.800 333.600 C 52.800 334.260,52.980 334.800,53.200 334.800 C 53.420 334.800,53.600 335.520,53.600 336.400 C 53.600 337.280,53.780 338.000,54.000 338.000 C 54.220 338.000,54.400 338.450,54.400 339.000 C 54.400 339.550,54.580 340.000,54.800 340.000 C 55.020 340.000,55.200 340.540,55.200 341.200 C 55.200 341.860,55.380 342.400,55.600 342.400 C 55.820 342.400,56.000 342.940,56.000 343.600 C 56.000 344.260,56.180 344.800,56.400 344.800 C 56.620 344.800,56.800 345.340,56.800 346.000 C 56.800 346.660,56.980 347.200,57.200 347.200 C 57.420 347.200,57.600 347.920,57.600 348.800 C 57.600 349.680,57.759 350.400,57.954 350.400 C 58.149 350.400,58.431 351.387,58.582 352.594 C 58.733 353.800,59.023 354.891,59.228 355.017 C 59.433 355.144,59.600 355.676,59.600 356.200 C 59.600 356.724,59.780 357.264,60.000 357.400 C 60.220 357.536,60.400 358.087,60.400 358.624 C 60.400 359.161,60.580 359.600,60.800 359.600 C 61.020 359.600,61.200 360.320,61.200 361.200 C 61.200 362.080,61.380 362.800,61.600 362.800 C 61.820 362.800,62.000 363.340,62.000 364.000 C 62.000 364.660,62.180 365.200,62.400 365.200 C 62.620 365.200,62.800 365.740,62.800 366.400 C 62.800 367.060,62.980 367.600,63.200 367.600 C 63.420 367.600,63.600 368.140,63.600 368.800 C 63.600 369.460,63.780 370.000,64.000 370.000 C 64.220 370.000,64.400 370.551,64.400 371.224 C 64.400 371.937,64.567 372.344,64.800 372.200 C 65.042 372.051,65.200 372.596,65.200 373.576 C 65.200 374.469,65.380 375.200,65.600 375.200 C 65.820 375.200,66.000 375.740,66.000 376.400 C 66.000 377.060,66.180 377.600,66.400 377.600 C 66.620 377.600,66.800 377.960,66.800 378.400 C 66.800 378.870,67.067 379.200,67.446 379.200 C 68.099 379.200,70.800 376.539,70.800 375.896 C 70.800 375.705,71.340 375.094,72.000 374.539 C 72.660 373.983,73.200 373.273,73.200 372.961 C 73.200 372.648,73.560 372.084,74.000 371.707 C 74.440 371.330,74.800 370.800,74.800 370.529 C 74.800 370.258,75.250 369.586,75.800 369.036 C 76.350 368.486,76.800 367.798,76.800 367.506 C 76.800 367.215,77.160 366.717,77.600 366.400 C 78.040 366.083,78.400 365.575,78.400 365.272 C 78.400 364.969,78.940 364.217,79.600 363.600 C 80.260 362.983,80.800 362.231,80.800 361.928 C 80.800 361.625,81.160 361.117,81.600 360.800 C 82.040 360.483,82.400 359.982,82.400 359.686 C 82.400 359.390,82.940 358.694,83.600 358.139 C 84.260 357.583,84.800 356.875,84.800 356.564 C 84.800 356.254,84.959 356.000,85.154 356.000 C 85.349 356.000,85.794 355.399,86.142 354.665 C 86.491 353.931,87.231 352.988,87.788 352.570 C 88.345 352.152,88.800 351.575,88.800 351.287 C 88.800 350.999,89.269 350.295,89.842 349.722 C 90.415 349.149,91.062 348.167,91.281 347.540 C 91.499 346.913,91.841 346.400,92.039 346.400 C 92.238 346.400,92.400 346.112,92.400 345.760 C 92.400 345.409,92.940 344.617,93.600 344.000 C 94.260 343.383,94.800 342.668,94.800 342.411 C 94.800 341.789,95.838 340.772,96.152 341.086 C 96.289 341.222,96.400 341.016,96.400 340.627 C 96.400 340.239,96.940 339.417,97.600 338.800 C 98.260 338.183,98.800 337.431,98.800 337.128 C 98.800 336.825,99.160 336.317,99.600 336.000 C 100.040 335.683,100.400 335.119,100.400 334.747 C 100.400 334.375,100.940 333.617,101.600 333.061 C 102.260 332.506,102.800 331.810,102.800 331.514 C 102.800 331.218,103.160 330.717,103.600 330.400 C 104.040 330.083,104.400 329.575,104.400 329.272 C 104.400 328.969,104.940 328.217,105.600 327.600 C 106.260 326.983,106.800 326.291,106.800 326.060 C 106.800 325.830,107.250 325.156,107.800 324.562 C 108.350 323.969,108.800 323.279,108.800 323.030 C 108.800 322.781,109.160 322.317,109.600 322.000 C 110.040 321.683,110.400 321.175,110.400 320.872 C 110.400 320.569,110.940 319.817,111.600 319.200 C 112.260 318.583,112.800 317.831,112.800 317.528 C 112.800 317.225,113.160 316.717,113.600 316.400 C 114.040 316.083,114.400 315.575,114.400 315.272 C 114.400 314.969,114.940 314.217,115.600 313.600 C 116.260 312.983,116.800 312.231,116.800 311.928 C 116.800 311.625,117.160 311.117,117.600 310.800 C 118.040 310.483,118.400 309.946,118.400 309.608 C 118.400 309.269,118.760 308.768,119.200 308.493 C 120.027 307.976,120.305 306.800,119.600 306.800 C 119.380 306.800,119.200 306.260,119.200 305.600 C 119.200 304.940,119.020 304.400,118.800 304.400 C 118.580 304.400,118.400 303.860,118.400 303.200 C 118.400 302.540,118.220 302.000,118.000 302.000 C 117.780 302.000,117.600 301.460,117.600 300.800 C 117.600 300.140,117.420 299.600,117.200 299.600 C 116.980 299.600,116.800 299.060,116.800 298.400 C 116.800 297.740,116.620 297.200,116.400 297.200 C 116.180 297.200,116.000 296.581,116.000 295.824 C 116.000 295.067,115.820 294.336,115.600 294.200 C 115.380 294.064,115.200 293.513,115.200 292.976 C 115.200 292.439,115.020 292.000,114.800 292.000 C 114.580 292.000,114.400 291.460,114.400 290.800 C 114.400 290.140,114.220 289.600,114.000 289.600 C 113.780 289.600,113.600 289.060,113.600 288.400 C 113.600 287.740,113.420 287.200,113.200 287.200 C 112.980 287.200,112.800 286.660,112.800 286.000 C 112.800 285.340,112.620 284.800,112.400 284.800 C 112.180 284.800,112.000 284.260,112.000 283.600 C 112.000 282.940,111.820 282.400,111.600 282.400 C 111.380 282.400,111.200 281.860,111.200 281.200 C 111.200 280.540,111.020 280.000,110.800 280.000 C 110.580 280.000,110.400 279.460,110.400 278.800 C 110.400 278.140,110.220 277.600,110.000 277.600 C 109.780 277.600,109.600 277.161,109.600 276.624 C 109.600 276.087,109.420 275.536,109.200 275.400 C 108.980 275.264,108.800 274.713,108.800 274.176 C 108.800 273.639,108.620 273.200,108.400 273.200 C 108.180 273.200,108.000 272.660,108.000 272.000 C 108.000 271.340,107.797 270.800,107.550 270.800 C 107.263 270.800,107.187 270.364,107.340 269.600 C 107.475 268.923,107.410 268.400,107.190 268.400 C 106.976 268.400,106.800 267.680,106.800 266.800 C 106.800 265.920,106.620 265.200,106.400 265.200 C 106.180 265.200,106.000 264.660,106.000 264.000 C 106.000 263.340,105.820 262.800,105.600 262.800 C 105.380 262.800,105.200 262.260,105.200 261.600 C 105.200 260.940,105.020 260.400,104.800 260.400 C 104.580 260.400,104.400 259.950,104.400 259.400 C 104.400 258.850,104.220 258.400,104.000 258.400 C 103.780 258.400,103.600 257.860,103.600 257.200 C 103.600 256.540,103.420 256.000,103.200 256.000 C 102.980 256.000,102.800 255.460,102.800 254.800 C 102.800 254.140,102.620 253.600,102.400 253.600 C 102.180 253.600,102.000 253.060,102.000 252.400 C 102.000 251.740,101.820 251.200,101.600 251.200 C 101.380 251.200,101.200 250.660,101.200 250.000 C 101.200 249.340,101.020 248.800,100.800 248.800 C 100.580 248.800,100.400 248.260,100.400 247.600 C 100.400 246.940,100.220 246.400,100.000 246.400 C 99.780 246.400,99.600 245.860,99.600 245.200 C 99.600 244.540,99.420 244.000,99.200 244.000 C 98.980 244.000,98.800 243.550,98.800 243.000 C 98.800 242.450,98.620 242.000,98.400 242.000 C 98.180 242.000,98.000 241.460,98.000 240.800 C 98.000 240.140,97.820 239.600,97.600 239.600 C 97.380 239.600,97.200 239.060,97.200 238.400 C 97.200 237.740,97.020 237.200,96.800 237.200 C 96.580 237.200,96.400 236.480,96.400 235.600 C 96.400 234.720,96.220 234.000,96.000 234.000 C 95.780 234.000,95.600 233.460,95.600 232.800 C 95.600 232.140,95.420 231.600,95.200 231.600 C 94.980 231.600,94.800 231.060,94.800 230.400 C 94.800 229.740,94.620 229.200,94.400 229.200 C 94.180 229.200,94.000 228.660,94.000 228.000 C 94.000 227.340,93.820 226.800,93.600 226.800 C 93.380 226.800,93.200 226.350,93.200 225.800 C 93.200 225.250,93.020 224.800,92.800 224.800 C 92.580 224.800,92.400 224.260,92.400 223.600 C 92.400 222.940,92.241 222.400,92.046 222.400 C 91.851 222.400,91.569 221.413,91.418 220.206 C 91.267 219.000,90.977 217.909,90.772 217.783 C 90.567 217.656,90.400 217.124,90.400 216.600 C 90.400 216.076,90.220 215.536,90.000 215.400 C 89.780 215.264,89.600 214.724,89.600 214.200 C 89.600 213.676,89.420 213.136,89.200 213.000 C 88.980 212.864,88.800 212.223,88.800 211.576 C 88.800 210.929,88.620 210.400,88.400 210.400 C 88.180 210.400,88.000 209.950,88.000 209.400 C 88.000 208.850,87.820 208.400,87.600 208.400 C 87.380 208.400,87.200 207.860,87.200 207.200 C 87.200 206.540,87.020 206.000,86.800 206.000 C 86.580 206.000,86.400 205.280,86.400 204.400 C 86.400 203.520,86.220 202.800,86.000 202.800 C 85.780 202.800,85.600 202.260,85.600 201.600 C 85.600 200.940,85.420 200.400,85.200 200.400 C 84.980 200.400,84.800 199.860,84.800 199.200 C 84.800 198.540,84.620 198.000,84.400 198.000 C 84.180 198.000,84.000 197.460,84.000 196.800 C 84.000 196.140,83.820 195.600,83.600 195.600 C 83.380 195.600,83.200 195.060,83.200 194.400 C 83.200 193.740,83.020 193.200,82.800 193.200 C 82.580 193.200,82.400 192.750,82.400 192.200 C 82.400 191.650,82.220 191.200,82.000 191.200 C 81.780 191.200,81.600 190.660,81.600 190.000 C 81.600 189.067,81.422 188.800,80.800 188.800 C 80.360 188.800,80.000 188.620,80.000 188.400 C 80.000 188.180,79.460 188.000,78.800 188.000 C 78.140 188.000,77.600 187.820,77.600 187.600 C 77.600 187.380,77.060 187.200,76.400 187.200 C 75.740 187.200,75.200 187.020,75.200 186.800 C 75.200 186.580,74.750 186.400,74.200 186.400 C 73.650 186.400,73.200 186.220,73.200 186.000 C 73.200 185.780,72.660 185.600,72.000 185.600 C 71.340 185.600,70.800 185.420,70.800 185.200 C 70.800 184.980,70.260 184.800,69.600 184.800 C 68.940 184.800,68.400 184.620,68.400 184.400 C 68.400 184.180,67.860 184.000,67.200 184.000 C 66.540 184.000,66.000 183.820,66.000 183.600 C 66.000 183.380,65.460 183.200,64.800 183.200 C 64.140 183.200,63.600 183.020,63.600 182.800 C 63.600 182.580,63.060 182.400,62.400 182.400 C 61.740 182.400,61.200 182.220,61.200 182.000 C 61.200 181.780,60.660 181.600,60.000 181.600 C 59.340 181.600,58.800 181.420,58.800 181.200 C 58.800 180.980,58.350 180.800,57.800 180.800 C 57.250 180.800,56.800 180.620,56.800 180.400 C 56.800 180.180,56.271 180.000,55.624 180.000 C 54.977 180.000,54.336 179.820,54.200 179.600 C 54.064 179.380,53.524 179.200,53.000 179.200 C 52.476 179.200,51.936 179.020,51.800 178.800 C 51.664 178.580,51.113 178.400,50.576 178.400 C 50.039 178.400,49.600 178.220,49.600 178.000 C 49.600 177.780,49.060 177.600,48.400 177.600 C 47.740 177.600,47.200 177.420,47.200 177.200 C 47.200 176.980,46.660 176.800,46.000 176.800 C 45.340 176.800,44.800 176.590,44.800 176.333 C 44.800 176.077,44.679 175.987,44.532 176.135 C 44.384 176.282,43.875 176.148,43.399 175.836 C 42.923 175.524,41.693 175.143,40.667 174.989 C 39.640 174.835,38.800 174.550,38.800 174.355 C 38.800 174.160,38.260 174.000,37.600 174.000 C 36.940 174.000,36.400 173.820,36.400 173.600 C 36.400 173.380,35.860 173.200,35.200 173.200 C 34.540 173.200,34.000 173.020,34.000 172.800 C 34.000 172.580,33.460 172.400,32.800 172.400 C 32.140 172.400,31.600 172.220,31.600 172.000 C 31.600 171.780,31.060 171.600,30.400 171.600 C 29.740 171.600,29.200 171.420,29.200 171.200 C 29.200 170.980,28.660 170.800,28.000 170.800 C 27.340 170.800,26.800 170.620,26.800 170.400 C 26.800 170.180,26.260 170.000,25.600 170.000 C 24.940 170.000,24.400 169.820,24.400 169.600 C 24.400 169.380,23.950 169.200,23.400 169.200 C 22.850 169.200,22.400 169.020,22.400 168.800 C 22.400 168.580,21.860 168.400,21.200 168.400 C 20.540 168.400,20.000 168.220,20.000 168.000 C 20.000 167.780,19.460 167.600,18.800 167.600 C 18.140 167.600,17.600 167.420,17.600 167.200 C 17.600 166.980,17.060 166.800,16.400 166.800 C 15.740 166.800,15.200 166.620,15.200 166.400 C 15.200 166.180,14.660 166.000,14.000 166.000 C 13.340 166.000,12.800 165.820,12.800 165.600 C 12.800 165.380,12.260 165.200,11.600 165.200 C 10.940 165.200,10.400 165.020,10.400 164.800 C 10.400 164.580,9.961 164.400,9.424 164.400 C 8.887 164.400,8.336 164.220,8.200 164.000 C 8.064 163.780,7.513 163.600,6.976 163.600 C 6.439 163.600,6.000 163.420,6.000 163.200 C 6.000 162.980,5.471 162.800,4.824 162.800 C 4.177 162.800,3.536 162.620,3.400 162.400 C 3.264 162.180,2.724 162.000,2.200 162.000 C 1.676 162.000,1.136 161.820,1.000 161.600 C 0.205 160.314,-0.104 161.412,0.128 164.696 " stroke="none" fill="#b45c1c" fill-rule="evenodd"></path></g></svg>