<?xml version="1.0" encoding="utf-8"?>
<!-- Generator: Adobe Illustrator 23.0.2, SVG Export Plug-In . SVG Version: 6.00 Build 0)  -->
<svg version="1.1" id="Layer_1" xmlns="http://www.w3.org/2000/svg" xmlns:xlink="http://www.w3.org/1999/xlink" x="0px" y="0px"
	 viewBox="0 0 400 400" style="enable-background:new 0 0 400 400;" xml:space="preserve">
<style type="text/css">
	.st0{
		fill: none;
		stroke: rgb(217, 220, 217);
		stroke-miterlimit: 1;
		stroke-width: 0.5em;
	}
	.st1{
		fill: rgb(141, 198, 63);
	}
	.st2{
		fill: rgb(0, 0, 0);
	}
	.st3{
		fill:none;
	}
	.st4{
		display:none;
	}
	.st5 {
		font-family:'DrCarbfredPro';
	}
	.st6{
		font-size:48.0417px;
	}
</style>
<polygon class="st0" points="337.89,337.89 395,200 337.89,62.11 200,5 62.11,62.11 5,200 62.11,337.89 200,395 "/>
<path class="st1" d="M300.05,200.65c0.33,8.49-2.11,17.17-6.46,24.7c-3.54,6.13-8.33,11.49-13.89,15.37
	c-1.48,2.58-2.75,4.75-4.23,7.33c-1.29,15.07-10.9,30.51-24.53,37.66c-9.46,4.98-18.87,4.92-26,0.81
	c-5.67-3.28-9.9-9.13-11.57-17.05l-1.05-4.99l-8.18-38.81v95.76c0,2.22-1.79,4-4,4s-4-1.79-4-4v-92.72l-7.54,35.76l-1.05,5
	c-3.76,17.88-20.59,25.16-37.57,16.23c-7.51-3.95-13.81-10.42-18.16-17.95c-3.54-6.11-5.79-12.94-6.37-19.71
	c-1.48-2.58-2.75-4.76-4.23-7.33c-12.4-8.66-20.96-24.69-20.35-40.07c0.41-10.68,5.16-18.8,12.29-22.93
	c5.67-3.27,12.85-4,20.55-1.49l4.86,1.59l54.38,17.78l-42.72-38.31l-3.79-3.42c-13.61-12.21-11.5-30.41,4.71-40.65
	c7.19-4.54,15.95-6.75,24.63-6.75c7.07,0,14.12,1.45,20.26,4.34h8.46c13.69-6.41,31.87-5.82,44.88,2.42
	c9.03,5.7,13.71,13.88,13.71,22.11c0,6.54-2.95,13.13-8.98,18.54l-3.8,3.42l-42.92,38.51l54.97-17.98l4.86-1.59
	C284.58,170.55,299.29,181.48,300.05,200.65z"/>
<g>
	<path class="st2" d="M126.77,242.4c6.04-3.72,12.13-7.35,18.23-10.97l18.36-10.74l18.48-10.53l9.28-5.2
		c3.11-1.7,6.21-3.43,9.33-5.1c-3.01,1.87-6.06,3.69-9.09,5.53l-9.14,5.44l-18.36,10.73l-18.48,10.53
		C139.2,235.57,133.01,239.04,126.77,242.4z"/>
</g>
<g>
	<path class="st2" d="M200.45,114.78c0.21,7.09,0.3,14.18,0.38,21.27l0.12,21.27l-0.11,21.27l-0.14,10.63
		c-0.08,3.54-0.13,7.09-0.25,10.63c-0.11-3.54-0.16-7.09-0.25-10.63l-0.14-10.63l-0.11-21.27l0.12-21.27
		C200.15,128.96,200.25,121.87,200.45,114.78z"/>
</g>
<g>
	<path class="st2" d="M274.14,242.4c-6.24-3.37-12.43-6.83-18.61-10.3l-18.48-10.53l-18.36-10.73l-9.14-5.44
		c-3.03-1.84-6.07-3.66-9.09-5.53c3.13,1.67,6.22,3.4,9.33,5.1l9.28,5.2l18.48,10.53l18.36,10.74
		C262.01,235.05,268.1,238.68,274.14,242.4z"/>
</g>
<rect x="62.68" y="298.95" class="st3" width="274.91" height="38.5"/>
<text transform="matrix(1 0 0 1 94.4443 336.4717)" class="st4 st5 st6">laila nadine</text>
</svg>
